<svg width="80" height="80" viewBox="0 0 80 80" fill="none" xmlns="http://www.w3.org/2000/svg">
<g id="Frame">
<path id="Vector" d="M43.427 6.66992C47.1783 6.67612 49.0793 6.69596 50.722 6.74486L51.369 6.76602C52.1163 6.79259 52.8537 6.82592 53.7427 6.86759C57.2897 7.03146 59.7093 7.59259 61.8343 8.41759C64.0313 9.26479 65.887 10.4093 67.7397 12.262C69.5897 14.1148 70.7343 15.9759 71.5843 18.1676C72.4063 20.2898 72.9677 22.712 73.1343 26.2593C73.174 27.1481 73.206 27.8855 73.2323 28.633L73.2533 29.2799C73.302 30.9224 73.3243 32.8237 73.3313 36.575L73.334 39.0607C73.3343 39.3643 73.3343 39.6777 73.3343 40.001L73.334 40.9413L73.332 43.427C73.3257 47.1783 73.306 49.0793 73.257 50.722L73.2357 51.369C73.2093 52.1163 73.176 52.8537 73.1343 53.7427C72.9703 57.2897 72.4063 59.7093 71.5843 61.8343C70.737 64.0313 69.5897 65.887 67.7397 67.7397C65.887 69.5897 64.023 70.7343 61.8343 71.5843C59.7093 72.4063 57.2897 72.9677 53.7427 73.1343C52.8537 73.174 52.1163 73.206 51.369 73.2323L50.722 73.2533C49.0793 73.302 47.1783 73.3243 43.427 73.3313L40.9413 73.334C40.6377 73.3343 40.3243 73.3343 40.001 73.3343L39.0607 73.334L36.575 73.332C32.8237 73.3257 30.9224 73.306 29.2799 73.257L28.633 73.2357C27.8855 73.2093 27.1481 73.176 26.2593 73.1343C22.712 72.9703 20.2954 72.4063 18.1676 71.5843C15.9731 70.737 14.1148 69.5897 12.262 67.7397C10.4093 65.887 9.26759 64.023 8.41759 61.8343C7.59259 59.7093 7.03426 57.2897 6.86759 53.7427C6.82799 52.8537 6.79569 52.1163 6.76952 51.369L6.74856 50.722C6.69979 49.0793 6.67756 47.1783 6.67036 43.427L6.66992 36.575C6.67612 32.8237 6.69596 30.9224 6.74486 29.2799L6.76602 28.633C6.79259 27.8855 6.82592 27.1481 6.86759 26.2593C7.03146 22.7093 7.59259 20.2926 8.41759 18.1676C9.26479 15.9731 10.4093 14.1148 12.262 12.262C14.1148 10.4093 15.9759 9.26759 18.1676 8.41759C20.2926 7.59259 22.7093 7.03426 26.2593 6.86759C27.1481 6.82799 27.8855 6.79569 28.633 6.76952L29.2799 6.74856C30.9224 6.69979 32.8237 6.67756 36.575 6.67036L43.427 6.66992ZM40.001 23.3343C30.7913 23.3343 23.3343 30.7994 23.3343 40.001C23.3343 49.2107 30.7994 56.6677 40.001 56.6677C49.2107 56.6677 56.6677 49.2023 56.6677 40.001C56.6677 30.7913 49.2023 23.3343 40.001 23.3343ZM40.001 30.0009C45.524 30.0009 50.001 34.4763 50.001 40.001C50.001 45.524 45.5253 50.001 40.001 50.001C34.478 50.001 30.0009 45.5253 30.0009 40.001C30.0009 34.478 34.4763 30.0009 40.001 30.0009ZM57.501 18.3343C55.2033 18.3343 53.3343 20.2006 53.3343 22.4981C53.3343 24.7956 55.2007 26.6648 57.501 26.6648C59.7983 26.6648 61.6677 24.7985 61.6677 22.4981C61.6677 20.2006 59.7953 18.3314 57.501 18.3343Z" fill="white"/>
</g>
</svg>
